<svg xmlns="http://www.w3.org/2000/svg" version="1.1" viewBox="-5.0 -10.0 110.0 135.0">
 <g>
  <path d="m24.086 19.953c-1.3711 1.0078-2.3359 3.0547-2.582 4.7031-0.097656 0.66016-0.09375 1.3359 0.003906 1.9961 0.14063 0.95312 0.64453 1.7734 0.83594 2.7031 0.11328 0.55859 0.015625 1.8438 0.375 2.25 0.089844 0.10156 0.16016 0.13281 0.29297 0.13281 0.57812 0.007813 1.3438-0.76953 1.6875-1.1797 1.1914-1.4102 1.8477-3.1875 1.6836-5.0391-0.14844-1.6445-0.86328-2.8828-1.3828-4.3906-0.14062-0.40234-0.22266-0.8125-0.35156-1.2148 0.0625 1.1406 0.41016 2.1133 0.73437 3.1914 0.55859 1.8594 0.65234 3.6523-0.15234 5.4453-0.31641 0.69922-0.67578 1.4102-1.1914 1.9844-0.25391 0.28516-0.53125 0.50391-0.85547 0.69922-0.03125-0.92578 0.03125-1.8047-0.32812-2.6797-0.23828-0.58594-0.53516-1.1445-0.70703-1.7539-0.67578-2.4102 0.50391-4.9375 1.9609-6.8086l-0.03125-0.039063z"/>
  <path d="m17.105 34.414c-0.16797-0.015624-0.34375-0.019531-0.51172-0.015624-0.80859 0.066406-1.457 0.26562-2 0.91016-0.89062 1.0586-0.98828 2.3867-1.4219 3.6328-0.71484 0.64453-1.4688 1.2773-2.1094 1.9961 0.5-0.30078 0.94531-0.66797 1.4219-1.0078 0.34375-0.26172 0.74219-0.625 1.1641-0.73828 0.54297-0.14453 1.1875-0.011718 1.7461-0.023437 1.5273-0.03125 3.0664-0.71875 3.3125-2.4062 0.085938-0.59766-0.015625-1.2734-0.40234-1.75-0.30078-0.37109-0.73047-0.55859-1.1992-0.60156zm-2.4922 4.2188-0.89062 0.011719 0.32031-0.96094c0.13281 0.35156 0.32422 0.67188 0.65234 0.87109 0.011719 0.007812 0.027344 0.015624 0.039063 0.023437l-0.042969 0.03125 0.10938 0.007813c-0.0625 0.011718-0.12109 0.011718-0.18359 0.015624zm1.7305-2.1094c-0.046875 0.25391-0.16406 0.36719-0.36719 0.51172-0.0625 0.003906-0.097656 0.011719-0.16406 0.011719-0.17188 0-0.31641-0.046875-0.43359-0.17578-0.11719-0.125-0.16016-0.28125-0.14844-0.44922 0.023437-0.29297 0.16016-0.44141 0.375-0.625 0.09375-0.007813 0.18359-0.019531 0.27734-0.003906 0.14844 0.023437 0.27344 0.10938 0.35938 0.23047 0.10547 0.14844 0.13281 0.32422 0.10156 0.5zm2.0195-0.074219c0.007813 0.58984-0.27734 1.043-0.67969 1.4453-0.11328 0.089844-0.23438 0.17188-0.35156 0.25391 0.1875-0.26563 0.35156-0.53125 0.44531-0.84766 0.25-0.83594-0.085938-1.6289-0.48828-2.3516 0.22656 0.058593 0.42969 0.16016 0.60156 0.32422 0.3125 0.30078 0.46875 0.74609 0.47656 1.1719z"/>
  <path d="m96.281 61.773c-0.93359-3.6289-3.332-6.5664-6.3477-8.7031-0.91016-0.64453-1.8672-1.207-2.8438-1.7383-1.7305-0.94141-3.2461-1.6875-4.5508-3.2305-1.5391-1.8242-2.5-4.1211-3.4492-6.2852-0.69141-1.5742-1.3789-3.1562-2.1797-4.6758-3.5117-6.6758-9.9141-12.445-17.551-13.66-2.3906-0.37891-4.875-0.27344-7.2539 0.13281-3.6836 0.62891-7.2852 1.9805-10.57 3.75-2 1.0781-5.4297 3.5469-7.543 3.8945-1.6602 0.27344-3.4258-0.35937-4.7734-1.3125-0.59375-0.42187-1.1367-0.94141-1.6211-1.4805 0.48047-2.0703 0.14453-4.0391-0.5-6.0312-0.21484-0.66406-0.47266-1.3281-0.65625-2.0039-0.18359-0.68359-0.16797-1.582-0.52734-2.1914-0.14844-0.25-0.36719-0.41406-0.65234-0.47266-0.54688-0.11328-1.0938 0.17578-1.5273 0.48047-1.9492 1.3711-3.3008 3.5391-3.6992 5.8867-0.074218 0.44922-0.10938 0.91016-0.14062 1.3633-0.45312 0.050781-0.89844 0.10547-1.3477 0.19922-0.5-0.96875-1.1094-1.8633-1.5352-2.8711-0.55078-1.293-1.0508-3.8594-1.7305-4.8633-0.23438-0.34766-0.47266-0.55078-0.86328-0.70313-1.2227 0.44922-2.0703 1.8906-2.5859 3.0156-0.83203 1.8086-1.0469 3.8477-0.33984 5.7383 0.28906 0.77344 0.73047 1.5508 1.1992 2.2305-1.2305 0.94141-2.3438 1.9297-3.207 3.2305-1.8086 2.7266-2.4375 5.8789-3.9766 8.7148-0.42578 0.78516-0.875 1.5586-1.3633 2.3086-0.25 0.38281-0.58984 0.76172-0.79688 1.168-0.097656 0.19531-0.17188 0.41797-0.20312 0.63672-0.074219 0.50391 0.10547 0.86328 0.40234 1.25 0.46094 0.59766 1.1484 0.94141 1.8711 1.1133 0.32031 0.078126 0.66016 0.125 0.96875 0.25 0.89453 0.36328 1.5156 0.87891 2.5234 1 1.2461 0.14453 2.4141-0.51953 3.5195-0.99609 1.8398-0.78906 3.6602-1.3906 5.6289-1.7656 0.41016-0.078125 0.875-0.19922 1.293-0.17578 1.5039 0.078126 3.9805 1.7695 4.9023 2.9023 0.33203 0.40625 0.39453 0.85156 0.57422 1.3242 0.83203 2.1992 1.2891 4.1211 1.0312 6.5078-0.15625 1.4297-0.41797 4.082-0.9375 5.3477-0.17969 0.43359-0.42969 0.83594-0.79688 1.1328-0.58594 0.47656-1.418 0.57422-2.1133 0.8125-0.82031 0.28125-1.6758 0.84766-2.3047 1.4414-0.19141 0.17969-0.50781 0.48438-0.53125 0.75391-0.007812 0.074219 0.027344 0.10547 0.0625 0.16797 0.22656 0.14062 0.35938 0.13281 0.62109 0.089843-0.27734 0.28125-0.9375 0.88672-0.93359 1.3125 0 0.089844 0.027344 0.10156 0.074219 0.16016 0.625 0.27344 1.8047-0.39063 2.4375-0.56641-0.23047 0.30078-0.66406 0.8125-0.59375 1.2188 0.023438 0.125 0.085938 0.21094 0.19531 0.27734 0.19922 0.12109 0.42188 0.039063 0.625-0.027344 0.82813-0.26562 1.5977-0.66797 2.4453-0.88672 0.83203-0.21484 2.5508-0.35156 3.1875-0.63672 0.42969-0.19141 0.70312-0.51172 0.91016-0.92578 0.22266-0.44531 0.33203-0.94141 0.49219-1.4141 0.16016-0.47266 0.37891-0.94141 0.60547-1.3867 0.58984-1.1523 1.3477-2.1953 1.9805-3.3164 0.30469-0.53906 0.53906-1.0938 0.79688-1.6562 0.69141 2.0977 1.0156 4.9258-0.015625 6.9766-0.35547 0.70312-0.89062 1.1211-1.6328 1.3555-0.51953 0.16406-1.0625 0.25781-1.5781 0.4375-0.51953 0.18359-1.9531 0.9375-2.2188 1.418-0.070313 0.125-0.085938 0.24219-0.085938 0.38281 0.035157 0.066406 0.035157 0.10937 0.11328 0.14062 0.20313 0.074219 0.44922-0.03125 0.62891-0.12891 0.69922-0.375 1.2852-0.84766 2.0352-1.1484 0.60156-0.24219 1.2617-0.36328 1.8711-0.59375 1.2031-0.45703 1.832-1.6523 2.1602-2.8281 0.8125-2.9102-0.011719-5.5039-1.1406-8.1797-0.51172-1.2148-1.0117-2.3594-1.168-3.6836-0.28516-2.3945 0.49609-4.7227 0.66406-7.0938-0.58594 1.3828-1.2188 4.1836-1.2617 5.6641-0.023437 0.77344 0.070313 1.5352 0.15625 2.3047-1.3164-0.69531-2.5234-1.7812-3.5547-2.8516-1.8633-1.9414-3.7109-4.5-6.4766-5.1797 2.2031-0.39844 4.2617-1.5547 5.5469-3.418 1.1055-1.6055 1.6367-3.6406 1.582-5.582-0.14844 0.55859-0.23047 1.1289-0.39844 1.6836-0.63672 2.0898-1.8945 4.2891-3.8242 5.4102-1.4492 0.84375-3.1562 1.0469-4.7695 1.3906-1.1016 0.23437-2.207 0.5-3.2852 0.82812-1.082 0.33203-2.1484 0.74219-3.1758 1.2188-0.78125 0.36328-1.5625 0.83203-2.3945 1.0625-0.51953 0.14453-1.0742 0.078126-1.5859-0.058593-0.34375-0.09375-0.67578-0.21484-0.99219-0.375 0.92188-0.10156 1.875-0.18359 2.7344-0.5625 1.6641-0.73438 2.6172-2.2344 4.6523-2.0703 0.09375 0.007813 0.058593 0.007813 0.15234-0.023437-0.027343-0.15625-0.16016-0.31641-0.29297-0.40234-0.33594-0.21484-0.79688-0.11719-1.1562-0.023437-1.0078 0.26562-1.8203 0.87891-2.6758 1.4453-0.29297 0.19531-0.62109 0.42188-0.94922 0.55469-0.50391 0.20312-1.082 0.30859-1.6172 0.37891-0.72266 0.097656-1.4688 0.13281-2.1953 0.03125 0.38672-0.61719 0.74219-1.2695 0.57031-2.0273-0.097656-0.42969-0.36328-0.78516-0.74219-1.0039-0.33203-0.19141-0.64453-0.24609-1.0234-0.24609 4.1211-5.3555 2.9336-10.875 9.7734-14.652 1.4883-0.82031 3.2031-1.5273 4.8984-1.7578 0.20703-0.027344 0.41797-0.039063 0.625-0.050782 0.17969 1.2812 0.53516 2.4336 1.0273 3.6289-0.007812-0.93359-0.19141-1.8359-0.28125-2.7617-0.26562-2.7422 0.23438-5.1758 2.2148-7.207 0.41016-0.42188 1.3867-1.4219 2.0156-1.4102 0.10156 0 0.15625 0.03125 0.23047 0.09375 0.27344 0.625 0.26562 1.4102 0.45312 2.0781 0.80469 2.9023 1.9922 5.3633 0.78516 8.4102-0.6875 1.7305-1.7539 2.875-3.4648 3.6094-0.24609 0.10547-0.49609 0.20312-0.74609 0.29688 1.4844-0.089844 2.8398-0.63672 3.8398-1.7617 0.57422-0.64453 0.97266-1.3867 1.2695-2.1953 1.1836 1.5312 3.0469 2.6758 4.9805 2.9258 1.7969 0.23438 3.3789-0.33984 4.8945-1.2617 0.52734 0.27734 1.1016 0.53516 1.5664 0.91406 0.49219 0.39844 0.93359 0.91797 1.3359 1.4023 1.8242 2.2031 3.0352 4.7891 3.8906 7.5039 0.87109 2.7695 1.3203 5.6562 1.0898 8.5586-0.074219 0.93359-0.30078 1.8594-0.35547 2.7852 1.6641-4.8477 1.1523-11.156-1.0859-15.746-1.0781-2.2109-3.1133-5.043-5.4961-5.8594-0.03125-0.011719-0.0625-0.019531-0.09375-0.03125 1.6836-0.93359 3.3047-1.9805 5.0586-2.793 3.3438 2.1055 4.8633 5.5195 5.7031 9.2344 0.62109 2.7461 0.86719 5.6758 0.75781 8.4883-0.046875 1.1836-0.19141 2.3516-0.25 3.5312 0.23828-0.83984 0.38672-1.7109 0.53125-2.5703 0.21875-1.2734 0.41016-2.5781 0.47656-3.8672 0.17969-3.6719-0.46484-8.3633-2.2891-11.609-0.86328-1.5352-2.0352-2.8789-3.5-3.8672 1.1914-0.46875 2.3789-0.92188 3.5977-1.3125 0.75-0.23828 1.5156-0.42188 2.2656-0.66016 2.6875 1.8984 4.0469 5.4336 4.582 8.5742 0.22656 1.3359 0.3125 2.6992 0.28906 4.0547-2.4883 2.6602-4.5898 4.9297-4.457 8.875 0.097656 2.875 1.6055 5.2227 2.9102 7.6719-3.4414-1.3047-5.125-2.25-8.8047-0.67188-1.2188 0.52344-2.4219 1.0312-3.7305 1.3086 0.37109-2.0547 0.51562-5.4453-0.69922-7.207-0.22266-0.32422-0.69922-0.85547-1.0938-0.95312-0.011719-0.003906-0.027344-0.003906-0.042969-0.003906l-0.03125 0.035156c0.070313 0.32031 0.55078 0.68359 0.74609 0.96875 0.37891 0.5625 0.57031 1.2344 0.67578 1.8984 0.17969 1.1289 0.17188 2.293 0.0625 3.4258-0.35156 3.668-1.8125 6.3789-3.0859 9.7344-0.38672 1.0117-0.77734 2.7148-1.3164 3.5664-0.30859 0.48438-0.74609 0.90625-1.1367 1.3281-0.36719 0.39453-0.73047 0.79688-1.168 1.1133-1.3711 0.99609-3.4883 1.1094-5.0781 1.6992 0.28906-0.32422 0.57031-0.58203 0.92969-0.82422 0.4375-0.29297 0.91016-0.55078 1.3789-0.78516 0.32812-0.16406 0.67969-0.29688 0.98047-0.51172 0.085937-0.0625 0.16406-0.10156 0.17578-0.21094-0.14453-0.09375-0.29297-0.089844-0.45703-0.050781-0.99609 0.22656-1.7812 0.875-2.7109 1.2188-0.5 0.18359-1.0664 0.089844-1.5859 0.19922l-0.0625 0.011719c-0.011718 0.003907-0.023437 0.003907-0.035156 0.007813 0.51172-0.46875 1.0547-0.85156 1.6719-1.1719 0.40625-0.21094 1.918-0.73047 2.1211-0.95703l-0.015625-0.066407c-0.77734-0.21484-2.5078 0.48828-3.1719 0.86719-0.65625 0.37109-1.8945 1.3164-2.1094 2.0586-0.023438 0.085938-0.019531 0.14844 0.003906 0.23438 0.074219 0.078124 0.12891 0.125 0.24219 0.13281 0.39844 0.03125 0.98828-0.33984 1.3789-0.47266 0.26562-0.09375 0.53906-0.16016 0.80859-0.22656-0.22266 0.28516-0.75 0.83984-0.69531 1.2148 0.019531 0.12109 0.066407 0.20703 0.17188 0.27344 0.14844 0.089844 0.42578-0.007812 0.58203-0.058593 0.51953-0.17188 1.0156-0.40625 1.543-0.55469 1.2852-0.37109 2.707-0.50391 3.8633-1.2266 0.625-0.39062 1.1445-0.93359 1.6992-1.4102 0.59375-0.51172 1.1719-0.89453 1.5273-1.625 0.39062-0.80859 0.59766-1.7227 0.92188-2.5586 1.1055-2.8516 2.3672-5.6328 2.9102-8.6641 1.1055 0.007813 2.1445-0.10156 3.1953-0.46094 1.5273-0.51953 2.6641-1.3242 4.3594-1.3047 1.957 0.023438 3.5898 1.168 5.4883 1.3828 1.332 2.2266 2.3633 3.5469 4.2578 5.3242-2.1523-0.13281-3.9883 0.046876-6.0742 0.5625-1.1719 0.28906-2.1523 0.51953-3.082 1.3359-0.32422 0.28516-1.2148 1.1328-1.2578 1.5625-0.011719 0.11719 0 0.20703 0.078125 0.29688 0.10156 0.11719 0.25781 0.12891 0.40234 0.11719 0.46875-0.042968 1.332-0.54687 1.7422-0.35547-0.13672 0.37109-0.47266 0.61719-0.47656 1.043 0.046875 0.097657 0.066406 0.14844 0.17578 0.19141 0.35938 0.14844 2.0117-0.48828 2.5234-0.55859 1.0391-0.14062 2.1172-0.015625 3.1641-0.074219 1.082-0.0625 2.1641-0.24219 3.2344-0.39453 1.2148-0.17188 2.4609-0.31641 3.6562-0.60547 0.57031-0.13672 1.1055-0.30859 1.6953-0.28906-1.7695 1.0117-4.7461 2.0977-6.1289 3.4922-0.39062 0.39453-0.68359 0.89062-0.93359 1.3789-0.14844 0.29297-0.31641 0.60937-0.39844 0.92969-0.03125 0.12891-0.066406 0.31641-0.007813 0.44531 0.046876 0.10156 0.11328 0.14844 0.21875 0.17187 0.29688 0.066407 0.66797-0.20703 0.91016-0.34766-0.007813 0.39844-0.1875 1.4062 0.15625 1.6758 0.09375 0.070312 0.19922 0.074218 0.30859 0.050781 0.58203-0.13281 1.0938-0.93359 1.7812-1.1211 1.25-0.34375 2.625-0.13672 3.9062-0.41016 1.7578-0.37891 3.4492-1.0117 5.0234-1.8828 0.56641-0.3125 1.0859-0.70312 1.6562-1.0078 1.4062-0.75 3.2578-1.332 4.0586-2.8242 0.34766-0.64844 0.4375-1.4453 0.20312-2.1523-0.31641-0.94922-1.0898-0.95703-1.6289-1.5977-0.65625-0.78125-0.3125-2.8359 0.11328-3.6836 0.24609-0.49219 0.66797-0.85938 1.0625-1.2344 1.2617 1.6211 2.8789 2.918 4.7305 3.8086 3.3516 1.6133 7.0859 1.4648 8.5508 5.5703 0.41016 1.1523 0.59766 2.4023 0.44922 3.6211-0.3125 2.5938-2.0547 4.6562-4.0547 6.2031-1.7852 1.3828-3.8555 2.5508-6.0938 2.9727-0.88281 0.16797-1.8008 0.21875-2.6992 0.18359-1.3906-0.058593-5.4922-0.88672-5.7461 1.2266-0.066406 0.54688 0.15625 1.0625 0.5 1.4766 1.3789 1.6797 4.9453 2.6406 7.0586 2.8281 4.875 0.43359 10.406-1.7617 14.094-4.8711 2.3438-1.9766 4.1797-4.5352 5.0312-7.5 0.23438-0.81641 0.31641-1.6484 0.52344-2.4648v-2.6328c-0.19922-1.1602-0.29688-2.3086-0.59375-3.4531zm-69.77-11.301c1.0039 1.1641 2.6758 2.7539 4.2031 3.0742 0.38281 0.92578 0.64844 1.9258 0.98828 2.8711-0.38672 0.95703-0.83594 1.8828-1.3477 2.7773-0.5625 0.98438-1.1797 1.9453-1.6836 2.9648-0.19922 0.40234-0.37891 0.8125-0.53516 1.2305-0.19531 0.51953-0.35938 1.168-0.67969 1.625-0.15234 0.22266-0.37891 0.44141-0.62109 0.55859-0.78516 0.37891-2.1055 0.54297-2.9844 0.76953-0.67969 0.17578-1.3516 0.42969-2.043 0.55859 0.3125-0.41016 0.65625-0.76172 1.0938-1.0352 0.41797-0.26172 1.0156-0.44922 1.3281-0.83203-0.035157-0.023437-0.066407-0.046875-0.10156-0.070312-0.13672-0.082032-0.24609-0.070313-0.39453-0.039063-0.55859 0.125-1.0312 0.44922-1.5703 0.61719-0.64453 0.20312-1.3555 0.30469-2.0156 0.47656 0.90234-1.0391 2.082-1.3945 3.3359-1.8398 0.27734-0.097657 0.63281-0.1875 0.87109-0.35938-0.015625-0.011718-0.03125-0.023437-0.046875-0.03125-0.64844-0.29687-2.7422 0.42188-3.418 0.64453 0.91406-0.64844 1.9375-0.78125 2.9414-1.1953 0.92188-0.38281 1.6016-0.94922 1.9844-1.8828 0.38281-0.93359 0.50391-2.0508 0.64062-3.0469 0.53125-3.8125 0.52734-5.543-1.0117-9.1523 0.39453 0.39453 0.71094 0.88281 1.0781 1.3086zm-21.438-7.0781c0.29297 0.058594 0.56641 0.25391 0.71875 0.51172 0.15625 0.26562 0.19922 0.60156 0.10547 0.89844-0.125 0.41016-0.39063 0.60547-0.75391 0.79297-0.11719 0.007813-0.24609 0.023438-0.36328-0.003906-0.29688-0.066406-0.57422-0.29688-0.72266-0.55859-0.16016-0.27734-0.19141-0.60156-0.09375-0.91016 0.10938-0.34375 0.36719-0.60547 0.68359-0.76562 0.14062-0.003906 0.28516 0 0.42578 0.03125zm9.6914-16.355c-0.51562 0.26172-1.0195 0.54297-1.5273 0.82031-0.94531-1.5078-1.5234-3.2266-1.3125-5.0156 0.20312-1.7109 1.0742-3.6016 2.4414-4.6836 0.25391 0.17188 0.38672 0.5 0.50391 0.77344 0.29297 0.6875 0.47656 1.4375 0.71484 2.1484 0.46094 1.3594 1.4492 3.6953 2.3281 4.7656-1.0938 0.33203-2.1211 0.69141-3.1484 1.1953zm51.98 0.31641c0.39453 0.77344 0.69141 1.5977 0.91016 2.4336 0.58594 2.2383 0.65625 4.5938 0.44922 6.8906-0.027344 0.29687-0.007813 0.86719-0.15234 1.1172l-0.085937-0.003906c-1.8438-0.92188-3.6016-1.25-5.6016-1.6133 0.007813-0.03125 0.019531-0.0625 0.027344-0.097657 0.85547-3.3672 0.60938-8.2383-1.207-11.254 1.7695 0.26953 4.1406 1.5781 5.6641 2.5234zm-12.988-1.2812c-0.42187-0.58594-0.91797-1.0742-1.4336-1.5742 1.2305-0.11719 2.4414-0.26562 3.6797-0.31641 1.0039-0.019532 2.0156 0.0625 3.0117 0.17969 2.6641 2.9531 2.9297 7.9883 2.8164 11.781-1.4453-0.12891-2.9805-0.16797-4.375 0.28125-0.48438 0.15625-0.92578 0.39453-1.3711 0.63281 0.14844-0.90234 0.17187-1.8203 0.15625-2.7305-0.050782-2.8008-0.83594-5.9688-2.4844-8.2617zm5.4727 36.93c-1.2031 0.17969-2.4062 0.37109-3.6211 0.44922-0.97266 0.0625-1.9648-0.054687-2.9297 0.035156-0.29297 0.027344-1.457 0.30859-1.6055 0.26953l0.027343-0.089843c0.82813-0.96094 1.7617-1.1914 2.9727-1.4219 0.31641-0.058594 0.64844-0.097656 0.94922-0.21094l0.011718-0.066406c-0.097656-0.089844-0.19922-0.125-0.33203-0.14062-1.2695-0.16797-2.8008 0.32031-3.8047 1.0898-0.58984-0.066407-1.1328 0.0625-1.6992 0.19922 0.40234-0.41016 0.85938-0.82031 1.3711-1.0898 1.1016-0.58203 3.9023-1.0781 5.2227-1.1875 0.76172-0.097656 3.2812-0.082032 3.9648 0.18359 0.41016 0.16016 0.78906 0.44531 1.1719 0.65625 0.55078 0.30469 1.1367 0.54297 1.7266 0.75781-1.1328 0.23828-2.2812 0.39844-3.4297 0.56641zm32.352 13.109c-3.5391 3.4883-8.7891 5.6484-13.758 5.6016-0.73828-0.007813-1.4648-0.082032-2.1914-0.22656-1.3633-0.27344-3.8164-1.0508-4.7773-2.0703-0.23047-0.24219-0.47656-0.59766-0.44141-0.95312 0.0625-0.66406 1.1562-0.71094 1.6602-0.73438 1.2773-0.058594 2.5625 0.17578 3.8398 0.19922 3.2344 0.058593 6.3125-1.3008 8.8242-3.2734 2.1445-1.6836 4.0352-3.8398 4.3594-6.6484 0.16797-1.4531-0.058594-2.9766-0.58594-4.3359-1.6523-4.2422-4.4609-4.2266-8.082-5.7109-2.0781-0.85156-3.8711-2.1133-5.2695-3.8828 0.29297-0.35938 0.5625-0.73438 0.79688-1.1328 0.875-1.4883 1.1797-3.293 0.73438-4.9766-0.050781-0.1875-0.11328-0.46484-0.29297-0.57031-0.054688 0.039062 0.10937 0.87891 0.125 1.0352 0.070312 0.77344-0.085938 1.4062-0.34375 2.1289-0.84375 2.0156-1.6367 2.6797-3.0547 4.2109-0.85938 0.93359-1.0625 2.1523-1.0039 3.3906 0.035156 0.79688 0.25 1.6289 0.91406 2.1406 0.28516 0.21875 0.61328 0.40625 0.87891 0.65625 0.28906 0.27344 0.46094 0.60547 0.46484 1.0078 0.003906 0.58203-0.26562 1.1094-0.66406 1.5234-0.80859 0.83984-2.0352 1.2891-3.0547 1.8242-0.42969 0.22656-0.77734 0.58203-1.207 0.8125-1.418 0.77344-5.3086 2.3398-6.8359 2.5859-0.69922 0.11328-1.4648 0.050781-2.1758 0.066406 0.22266-0.20703 0.44922-0.39453 0.70312-0.56641 0.34375-0.23047 1.5586-0.83984 1.6914-1.0547-0.22266-0.09375-0.70703 0.085938-0.93359 0.16406-0.91406 0.32031-1.7812 0.82422-2.2109 1.7266-0.43359 0.15234-0.78516 0.30469-1.1484 0.58203 0.027343-0.1875 0.054687-0.375 0.097656-0.55859 0.27344-1.1836 1.207-1.9883 2.2305-2.5469 0.42188-0.23047 0.88281-0.42969 1.2852-0.69531 0.10547-0.070312 0.20703-0.13672 0.23828-0.26562l-0.058593-0.039062c-0.09375 0.007812-0.17578 0.019531-0.26563 0.046875-1.5078 0.44922-2.9141 1.3203-3.6875 2.7188-0.16016-0.011719-0.3125 0.015625-0.46875 0.035156 0.16406-0.45312 0.33594-0.88672 0.66797-1.2461 0.83984-0.90625 2.9375-1.8867 4.0586-2.4727 0.91016-0.47656 1.8203-0.96484 2.6914-1.5156 1.3633 0.09375 2.582 0.015625 3.8281-0.60547 1.0352-0.51562 1.6836-1.2148 2.0469-2.3125-0.20312 0.20703-0.41016 0.41016-0.625 0.60156-1.2539 1.1172-2.918 1.543-4.5742 1.4453-3.2461-0.19531-6.4414-2.2812-8.5586-4.6641-1.8867-2.125-4.5039-6.293-5.3086-9.0039-0.28906-0.96875-0.41406-1.9883-0.35156-2.9961 0.1875-2.9727 1.9805-5.4453 4.1641-7.3516 0.44922-0.39062 0.94922-0.72656 1.5117-0.9375 1.1875-0.44531 2.9492-0.38281 4.2227-0.29297 3.1523 0.21875 6.4492 1.1367 9.0195 3.0273 1.0156 0.74609 1.8867 1.6172 2.7148 2.5664-0.003906-0.015624-0.007813-0.027343-0.015625-0.042968l-0.023438-0.070313c-0.007812-0.019531-0.011718-0.039062-0.019531-0.058593-0.60547-1.793-3.2695-3.5586-4.9258-4.3711 0.17969-0.44531 0.27734-0.93359 0.37891-1.4023 0.55078-2.5352 0.61719-5.4648-0.14453-7.9609 0.57031 0.25781 1.9023 1.5586 2.3945 2.0273 3.7148 3.5781 5.2305 6.9141 7.2656 11.586 0.90234 2.0742 1.8203 4.2461 3.2305 6.0352 1.8438 2.3359 4.2188 3.3789 6.6875 4.8438 1.3164 0.78125 2.6016 1.6992 3.6797 2.7891 2.7031 2.7305 3.9336 6.3008 3.9141 10.094-0.019531 3.9219-1.4688 7.3164-4.2539 10.066z"/>
 </g>
<text x="0.0" y="117.5" font-size="5.0" font-weight="bold" font-family="Arbeit Regular, Helvetica, Arial-Unicode, Arial, Sans-serif" fill="#000000">Created by Fauzi Arts</text><text x="0.0" y="122.5" font-size="5.0" font-weight="bold" font-family="Arbeit Regular, Helvetica, Arial-Unicode, Arial, Sans-serif" fill="#000000">from Noun Project</text></svg>